<svg xmlns="http://www.w3.org/2000/svg" version="1.1" xmlns:xlink="http://www.w3.org/1999/xlink" xmlns:svgjs="http://svgjs.dev/svgjs" width="1000" height="184" viewBox="0 0 1000 184"><g transform="matrix(1,0,0,1,-0.6060494725604713,-0.1169642442169021)"><svg viewBox="0 0 396 73" data-background-color="#f9f9f9" preserveAspectRatio="xMidYMid meet" height="184" width="1000" xmlns="http://www.w3.org/2000/svg" xmlns:xlink="http://www.w3.org/1999/xlink"><g id="tight-bounds" transform="matrix(1,0,0,1,0.23999559113394753,0.04640429254257583)"><svg viewBox="0 0 395.52 72.907189945889" height="72.907189945889" width="395.52"><g><svg viewBox="0 0 494.98261276632707 91.24138189944132" height="72.907189945889" width="395.52"><g transform="matrix(1,0,0,1,99.4626127663271,28.194911366175717)"><svg viewBox="0 0 395.52 34.85155916708989" height="34.85155916708989" width="395.52"><g><svg viewBox="0 0 395.52 34.85155916708989" height="34.85155916708989" width="395.52"><g><svg viewBox="0 0 395.52 34.85155916708989" height="34.85155916708989" width="395.52"><g transform="matrix(1,0,0,1,0,0)"><svg width="395.52" viewBox="2.75 -33.70000076293945 393.7699890136719 34.70000076293945" height="34.85155916708989" data-palette-color="#111111"><path d="M24.4-8.6L24.4-8.6Q24.4-4.4 21.25-1.7 18.1 1 13.35 1L13.35 1Q10.65 1 7.5 0.08 4.35-0.85 2.8-2.45L2.8-2.45 2.75-4.2Q2.75-7.9 3.3-10.9L3.3-10.9 6-10.9 6.7-4.9Q10.15-2.3 15.05-2.3L15.05-2.3 16.75-2.4Q19.65-3.95 19.65-7.5L19.65-7.5Q19.65-10.55 16.15-12.55L16.15-12.55 8.05-16.75Q3-19.75 3-24.45L3-24.45Q3-28.45 6.3-30.98 9.6-33.5 14.65-33.5L14.65-33.5Q18.15-33.5 22.9-31.95L22.9-31.95 22.95-30.2Q22.95-26.55 22.4-23.5L22.4-23.5 19.7-23.5 19.2-28.05Q16.35-30.25 12.35-30.25L12.35-30.25 10.05-30.05Q7.65-28.6 7.65-25.5L7.65-25.5Q7.65-22.65 11.1-20.75L11.1-20.75 19.1-16.7Q24.4-13.65 24.4-8.6ZM62.1-32.5L62.4-30.9 58.15-29.35 58.15 0 53 0.55 35.25-27.85 36.15-20.9 36.15-2.85 40.6-2.35 40.55 0 28.45 0 28.15-1.6 32.4-3.15 32.4-29.75 29.15-30.15 29.2-32.5 38.1-32.5 55.3-4.8 54.35-11.6 54.35-29.6 49.5-30.15 49.55-32.5 62.1-32.5ZM85.95-9.15L88.59-8.95Q88.75-4 88 0L88 0 64.7 0 64.4-1.6 68.65-3.15 68.65-29.9 65.09-30.1 65.15-32.5 88-32.5 88.05-30.8Q88.05-27.3 87.5-24.25L87.5-24.25 84.8-24.25 84.2-28.85 73.3-29.6 73.3-17.7 84.75-18.55 84.75-14.2 73.3-14.7 73.3-3.25 84.65-3.75 85.95-9.15ZM121.19-2.75L124.84-2.35 124.79 0 111.39 0 111.09-1.6Q112.69-2.35 115.99-3.35L115.99-3.35 113.34-10.05 99.84-10.05 97.04-2.95 102.29-2.35 102.24 0 89.34 0 89.04-1.6Q90.29-2.2 93.19-3.1L93.19-3.1 104.89-31.45 104.54-32.35 108.49-33.7 121.19-2.75ZM101.04-13.1L112.14-13.1 106.54-27.2 101.04-13.1ZM152.34-2.6L155.24-2.4 155.19 0 148.29 0 137.04-15.45 133.74-11.9 133.74-2.9 138.59-2.35 138.54 0 125.14 0 124.84-1.6 129.09-3.15 129.09-29.7 125.19-30.15 125.24-32.5 137.69-32.5 137.99-30.9 133.74-29.35 133.74-16.5 146.09-29.75 142.59-30.15 142.64-32.5 153.49-32.5 153.79-30.9 150.29-29.6 140.19-18.8 152.34-2.6ZM178.94-9.15L181.59-8.95Q181.74-4 180.99 0L180.99 0 157.69 0 157.39-1.6 161.64-3.15 161.64-29.9 158.09-30.1 158.14-32.5 180.99-32.5 181.04-30.8Q181.04-27.3 180.49-24.25L180.49-24.25 177.79-24.25 177.19-28.85 166.29-29.6 166.29-17.7 177.74-18.55 177.74-14.2 166.29-14.7 166.29-3.25 177.64-3.75 178.94-9.15ZM211.79-2.65L215.19-2.35 215.14 0 207.54 0 200.39-13 194.44-12.95 194.44-2.95 199.79-2.35 199.74 0 185.84 0 185.54-1.6 189.79-3.15 189.79-29.9 186.24-30.1 186.29-32.5 200.24-32.9Q205.54-32.9 208.81-30.18 212.09-27.45 212.09-23.25L212.09-23.25Q212.09-20.25 210.24-17.57 208.39-14.9 204.99-13.7L204.99-13.7 211.79-2.65ZM194.44-29.2L194.44-16.25Q196.69-15.9 198.69-15.9L198.69-15.9Q203.29-15.9 205.14-18.07 206.99-20.25 206.99-23.25L206.99-23.25Q206.99-28.05 203.09-29.95L203.09-29.95 194.44-29.2ZM274.83-32.5L275.13-30.9Q273.38-30.1 271.18-29.45L271.18-29.45 262.83 0.15Q260.73 0.55 258.83 0.55L258.83 0.55 257.38 0.5 251.98-18.6 251.88-18.6 250.93-12.95 246.83 0.15Q244.73 0.55 242.93 0.55L242.93 0.55 241.48 0.5 232.93-29.7 229.18-30.15 229.23-32.5 242.08-32.5 242.38-30.9 237.98-29.3 243.63-8.75 244.18-2.95 244.38-2.95 250.48-23.9 248.58-30.7 253.33-31.95 259.23-8.65 259.93-2.95 260.08-2.95 267.38-29.55 262.33-30.15 262.38-32.5 274.83-32.5ZM289.43-33.5L289.43-33.5Q296.23-33.5 300.6-28.55 304.98-23.6 304.98-15.85L304.98-15.85Q304.98-8.3 300.73-3.65 296.48 1 289.83 1L289.83 1Q283.08 1 278.73-3.75 274.38-8.5 274.38-16.05L274.38-16.05Q274.38-23.75 278.63-28.63 282.88-33.5 289.43-33.5ZM284.03-29.2L284.03-29.2Q281.98-27.65 280.73-24.18 279.48-20.7 279.48-16.75L279.48-16.75Q279.48-10.35 282.53-6.45 285.58-2.55 290.73-2.55L290.73-2.55Q292.58-2.55 294.58-3.05L294.58-3.05Q296.93-4.55 298.38-7.95 299.83-11.35 299.83-15.6L299.83-15.6Q299.83-22 296.8-26.03 293.78-30.05 288.83-30.05L288.83-30.05Q286.53-30.05 284.03-29.2ZM333.73-2.65L337.13-2.35 337.08 0 329.48 0 322.33-13 316.38-12.95 316.38-2.95 321.73-2.35 321.68 0 307.78 0 307.48-1.6 311.73-3.15 311.73-29.9 308.18-30.1 308.23-32.5 322.18-32.9Q327.48-32.9 330.75-30.18 334.03-27.45 334.03-23.25L334.03-23.25Q334.03-20.25 332.18-17.57 330.33-14.9 326.93-13.7L326.93-13.7 333.73-2.65ZM316.38-29.2L316.38-16.25Q318.63-15.9 320.63-15.9L320.63-15.9Q325.23-15.9 327.08-18.07 328.93-20.25 328.93-23.25L328.93-23.25Q328.93-28.05 325.03-29.95L325.03-29.95 316.38-29.2ZM361.27-10.15L364.07-9.95Q364.17-4.05 363.47 0L363.47 0 339.17 0 338.87-1.6 343.12-3.15 343.12-29.7 339.27-30.15 339.32-32.5 351.72-32.5 352.02-30.9 347.77-29.35 347.77-3.35 359.97-3.85 361.27-10.15ZM381.87-32.9L381.87-32.9Q388.12-32.9 392.32-28.08 396.52-23.25 396.52-16.45L396.52-16.45Q396.52-9.25 392.15-4.73 387.77-0.2 380.67 0L380.67 0 366.57 0 366.27-1.6 370.52-3.15 370.52-29.9 366.97-30.1 367.02-32.5Q374.92-32.9 381.87-32.9ZM379.82-3.3L379.82-3.3Q385.02-3.3 388.17-6.98 391.32-10.65 391.32-16.45L391.32-16.45Q391.32-20.9 389.35-24.65 387.37-28.4 384.37-29.95L384.37-29.95 375.17-29.2 375.17-3.95Q377.62-3.3 379.82-3.3Z" opacity="1" transform="matrix(1,0,0,1,0,0)" fill="#000000" class="undefined-text-0" data-fill-palette-color="primary" id="text-0"></path></svg></g></svg></g></svg></g></svg></g><g><svg viewBox="0 0 91.23499608439718 91.24138189944132" height="91.24138189944132" width="91.23499608439718"><g><svg xmlns="http://www.w3.org/2000/svg" xmlns:xlink="http://www.w3.org/1999/xlink" version="1.1" x="0" y="0" viewBox="0 0 99.95500183105469 99.96199798583984" enable-background="new 0 0 99.956 99.962" xml:space="preserve" width="91.23499608439718" height="91.24138189944132" class="icon-icon-0" data-fill-palette-color="accent" id="icon-0"><g fill="#030303" data-fill-palette-color="accent"><path d="M49.984 0C22.384 0.008 0.01 22.375 0 49.98c0.01 27.606 22.384 49.975 49.984 49.982 27.605-0.008 49.971-22.376 49.971-49.982C99.956 22.375 77.589 0.008 49.984 0zM8.014 49.98c0.018-8.941 2.838-17.206 7.602-24.007 0.039 3.958 1.506 8.964 6.333 14.757 5.609 6.728 11.495 9.536 20.753 15.144 9.253 5.602 7.846 8.128 5.597 10.655-2.241 2.52-7.564 11.765 0.841 16.818 6.478 3.88 7.581 4.2 6.454 7.564-0.081 0.246-0.17 0.422-0.256 0.649-1.756 0.227-3.533 0.383-5.352 0.388C26.808 91.91 8.057 73.163 8.014 49.98zM68.676 87.493c1.898-2.8 3.933-6.535 5.69-11.436 3.936-10.928 5.891-25.229-1.674-23.546-6.665 1.479-14.855 3.081-18.789 3.638-3.919 0.562-8.688-3.364-14.011-6.165-5.323-2.801-8.409-7.573-4.209-10.654 4.209-3.082 12.614 7.572 15.427 4.208 2.793-3.364 0.844-6.454 4.481-13.736 3.642-7.291 3.989-5.953 6.728-12.055 1.379-3.076 1.111-5.707 0.25-7.791 17.015 5.358 29.349 21.23 29.382 40.023C91.922 66.431 82.445 80.614 68.676 87.493z" fill="#000000" data-fill-palette-color="accent"></path></g></svg></g></svg></g></svg></g><defs></defs></svg><rect width="395.52" height="72.907189945889" fill="none" stroke="none" visibility="hidden"></rect></g></svg></g></svg>