<svg xmlns="http://www.w3.org/2000/svg" width="256" height="256" viewBox="0 0 100 100"><rect width="100" height="100" rx="20" fill="#c4b7a6"></rect><path d="M36.97 57.65L36.97 57.65Q36.97 61.85 33.82 64.55Q30.67 67.25 25.92 67.25L25.92 67.25Q23.22 67.25 20.07 66.33Q16.92 65.40 15.37 63.80L15.37 63.80L15.32 62.05Q15.32 58.35 15.87 55.35L15.87 55.35L18.57 55.35L19.27 61.35Q22.72 63.95 27.62 63.95L27.62 63.95L29.32 63.85Q32.22 62.30 32.22 58.75L32.22 58.75Q32.22 55.70 28.72 53.70L28.72 53.70L20.62 49.50Q15.57 46.50 15.57 41.80L15.57 41.80Q15.57 37.80 18.87 35.27Q22.17 32.75 27.22 32.75L27.22 32.75Q30.72 32.75 35.47 34.30L35.47 34.30L35.52 36.05Q35.52 39.70 34.97 42.75L34.97 42.75L32.27 42.75L31.77 38.20Q28.92 36 24.92 36L24.92 36L22.62 36.20Q20.22 37.65 20.22 40.75L20.22 40.75Q20.22 43.60 23.67 45.50L23.67 45.50L31.67 49.55Q36.97 52.60 36.97 57.65ZM84.38 33.75L84.67 35.35Q82.92 36.15 80.72 36.80L80.72 36.80L72.38 66.40Q70.27 66.80 68.38 66.80L68.38 66.80L66.92 66.75L61.52 47.65L61.42 47.65L60.47 53.30L56.38 66.40Q54.27 66.80 52.47 66.80L52.47 66.80L51.02 66.75L42.47 36.55L38.72 36.10L38.77 33.75L51.62 33.75L51.92 35.35L47.52 36.95L53.17 57.50L53.72 63.30L53.92 63.30L60.02 42.35L58.13 35.55L62.88 34.30L68.77 57.60L69.47 63.30L69.63 63.30L76.92 36.70L71.88 36.10L71.92 33.75L84.38 33.75Z" fill="#fff"></path></svg>